<svg xmlns="http://www.w3.org/2000/svg" viewBox="0 0 800 600" role="img" aria-label="Practice Intelligence Dashboard preview">
  <defs>
    <style>
      .p{font-family:'JetBrains Mono',ui-monospace,Menlo,monospace;letter-spacing:1.2px;text-transform:uppercase;}
      .h{font-family:'Inter Tight','Helvetica Neue',Arial,sans-serif;font-weight:500;letter-spacing:-0.02em;}
      .n{font-family:'Inter Tight','Helvetica Neue',Arial,sans-serif;font-weight:500;letter-spacing:-0.035em;}
    </style>
  </defs>
  <rect width="800" height="600" fill="#FFFFFF"/>
  <rect x="0" y="0" width="800" height="64" fill="#FAFAFA"/>
  <line x1="0" y1="64" x2="800" y2="64" stroke="#EDEDED"/>
  <text x="40" y="40" class="h" font-size="18" fill="#0A0A0A">Stephens AI</text>
  <text x="40" y="40" dx="160" class="p" font-size="10" fill="#6B6B6B">· PRACTICE INTELLIGENCE</text>
  <text x="760" y="40" text-anchor="end" class="p" font-size="10" fill="#6B6B6B">MON 20 APR · 07:03</text>

  <text x="40" y="112" class="p" font-size="10" fill="#6B6B6B">01 · THIS WEEK</text>
  <line x1="160" y1="108" x2="760" y2="108" stroke="#EDEDED"/>

  <g>
    <rect x="40" y="128" width="175" height="100" fill="#FFFFFF" stroke="#EDEDED"/>
    <text x="56" y="158" class="p" font-size="9" fill="#6B6B6B">PATIENTS</text>
    <text x="56" y="198" class="n" font-size="34" fill="#0A0A0A">142</text>
    <text x="56" y="216" class="p" font-size="9" fill="#F47B6B">▲ 6% · 4-WK AVG</text>
  </g>
  <g>
    <rect x="225" y="128" width="175" height="100" fill="#FFFFFF" stroke="#EDEDED"/>
    <text x="241" y="158" class="p" font-size="9" fill="#6B6B6B">OPTICAL CONV.</text>
    <text x="241" y="198" class="n" font-size="34" fill="#0A0A0A">64%</text>
    <text x="241" y="216" class="p" font-size="9" fill="#6B6B6B">▼ 4 PTS</text>
  </g>
  <g>
    <rect x="410" y="128" width="175" height="100" fill="#FFFFFF" stroke="#EDEDED"/>
    <text x="426" y="158" class="p" font-size="9" fill="#6B6B6B">RECALL COMP.</text>
    <text x="426" y="198" class="n" font-size="34" fill="#0A0A0A">71%</text>
    <text x="426" y="216" class="p" font-size="9" fill="#6B6B6B">· IN RANGE</text>
  </g>
  <g>
    <rect x="595" y="128" width="165" height="100" fill="#0A0A0A"/>
    <text x="611" y="158" class="p" font-size="9" fill="#A3A3A3">TOP OPPORTUNITY</text>
    <text x="611" y="198" class="n" font-size="34" fill="#F47B6B">$18.8K</text>
    <text x="611" y="216" class="p" font-size="9" fill="#A3A3A3">· 47 OVERDUE PATIENTS</text>
  </g>

  <text x="40" y="268" class="p" font-size="10" fill="#6B6B6B">02 · SIGNAL</text>
  <line x1="110" y1="264" x2="760" y2="264" stroke="#EDEDED"/>

  <g>
    <rect x="40" y="284" width="720" height="120" fill="#FFFFFF" stroke="#EDEDED"/>
    <text x="60" y="312" class="h" font-size="14" fill="#0A0A0A">Tuesday no-show rate climbing 3 weeks running</text>
    <text x="60" y="336" class="p" font-size="9" fill="#6B6B6B">NOW 12% · CLINIC AVG 4%</text>
    <g transform="translate(60 356)">
      <rect x="0" y="0" width="42" height="28" fill="#FDE6E1"/><text x="21" y="19" text-anchor="middle" class="h" font-size="11" fill="#0A0A0A">8%</text>
      <rect x="52" y="0" width="42" height="28" fill="#FDE6E1"/><text x="73" y="19" text-anchor="middle" class="h" font-size="11" fill="#0A0A0A">9%</text>
      <rect x="104" y="0" width="42" height="28" fill="#F47B6B"/><text x="125" y="19" text-anchor="middle" class="h" font-size="11" fill="#FFFFFF">12%</text>
      <text x="170" y="19" class="p" font-size="9" fill="#6B6B6B">· RECOMMEND REVIEWING CONFIRMATIONS</text>
    </g>
  </g>

  <text x="40" y="444" class="p" font-size="10" fill="#6B6B6B">03 · 12 KPIs TRACKED</text>
  <line x1="210" y1="440" x2="760" y2="440" stroke="#EDEDED"/>

  <g font-family="Inter Tight, Helvetica Neue, sans-serif" font-weight="500" font-size="12" fill="#6B6B6B">
    <text x="40" y="468">Patients</text><text x="160" y="468">New patient %</text><text x="300" y="468">No-show rate</text><text x="440" y="468">Same-day cancel</text><text x="600" y="468">Capture rate</text>
    <text x="40" y="492">Revenue / pt</text><text x="160" y="492">CL patient %</text><text x="300" y="492">Myopia attach</text><text x="440" y="492">Recall compliance</text><text x="600" y="492">Insurance mix</text>
    <text x="40" y="516">AR days</text><text x="160" y="516">Top 5 leaks</text>
  </g>

  <line x1="0" y1="560" x2="800" y2="560" stroke="#EDEDED"/>
  <text x="40" y="582" class="p" font-size="9" fill="#6B6B6B">STEPHENS AI · WICHITA FAMILY VISION · v2.0</text>
  <text x="760" y="582" text-anchor="end" class="p" font-size="9" fill="#F47B6B">● LIVE · SYNC 04:00 DAILY</text>
</svg>
